<svg xmlns="http://www.w3.org/2000/svg" width="512" height="512" viewBox="0 0 512 512" version="1.1">
	<path d="M 0 256.002 L 0 512.004 256.250 511.752 L 512.500 511.500 512.752 255.750 L 513.004 0 256.502 0 L 0 0 0 256.002 M 0.492 256.500 C 0.492 397.300, 0.608 454.751, 0.750 384.170 C 0.892 313.588, 0.892 198.388, 0.750 128.170 C 0.608 57.951, 0.492 115.700, 0.492 256.500 M 232.070 23.011 C 199.347 26.449, 159.180 40.998, 131.501 59.438 C 118.610 68.026, 104.041 80.470, 100.354 86.041 C 98.881 88.267, 97.268 89.689, 96.628 89.325 C 96.008 88.971, 93.250 87.099, 90.500 85.164 C 85.110 81.371, 94.688 90.734, 114.750 108.869 C 120.387 113.965, 124.982 118.442, 124.960 118.817 C 124.938 119.193, 122.970 121.618, 120.586 124.208 C 116.657 128.475, 115.930 128.863, 112.810 128.357 C 109.639 127.842, 108.988 128.219, 104.575 133.128 C 80.304 160.123, 64.004 201.078, 62.310 239.324 L 61.697 253.147 65.099 252.595 C 89.366 248.655, 92.305 247.803, 93.970 244.221 L 95.234 241.500 96.861 244.882 L 98.488 248.265 107.494 247.604 C 127.846 246.112, 184.045 244.962, 206.040 245.588 L 229.580 246.258 231.421 242.175 L 233.262 238.092 227.409 232.796 C 219.498 225.638, 208.895 215.907, 194.500 202.594 C 176.524 185.970, 178.634 187.289, 174.961 190.379 C 173.248 191.821, 171.388 193, 170.827 193 C 170.181 193, 169.934 196.454, 170.153 202.406 C 170.378 208.487, 170.147 211.608, 169.500 211.236 C 168.950 210.919, 166.401 208.927, 163.836 206.809 C 157.235 201.358, 148.868 196.503, 143.474 194.993 C 139.221 193.802, 138.697 193.858, 136.848 195.707 C 135.744 196.812, 133.348 201.418, 131.523 205.944 L 128.205 214.172 127.534 210.204 C 126.316 202.991, 129.592 180.712, 134.034 166 C 137.698 153.864, 139.429 154.061, 140.436 166.728 C 140.820 171.553, 141.666 176.440, 142.317 177.588 C 142.968 178.737, 147.952 183.912, 153.394 189.088 L 163.287 198.500 162.562 188 C 161.560 173.511, 159.418 161.779, 157.522 160.392 C 156.665 159.766, 153.751 158.959, 151.046 158.601 C 147.373 158.113, 144.607 156.804, 140.109 153.422 C 131.428 146.897, 120.051 134.140, 120.023 130.900 C 119.990 127.111, 125.003 120.807, 130.272 118.011 C 134.487 115.776, 135.074 115.698, 137.650 117.041 C 139.189 117.844, 147.660 125.680, 156.475 134.455 L 172.500 150.409 179.353 150.239 C 188.581 150.010, 193.756 146.992, 199.100 138.724 C 201.268 135.369, 203.260 132.407, 203.526 132.141 C 204.989 130.678, 196.521 173.858, 194.115 180.132 L 193.206 182.500 192.208 180 C 188.663 171.124, 183.870 161.887, 182.544 161.378 C 179.753 160.308, 176 163.691, 176.004 167.273 C 176.007 170.226, 178.354 172.624, 203.616 195.500 C 243.458 231.577, 242.791 231.014, 244.769 230.284 C 245.721 229.933, 246.831 229.163, 247.235 228.573 C 247.639 227.983, 247.985 213.775, 248.005 197 C 248.037 169.107, 248.796 133.370, 250.581 75.750 L 251.255 54 246.877 54.018 C 234.051 54.072, 208.422 59.491, 193.217 65.363 C 169.872 74.380, 143.121 91.062, 126.835 106.761 L 122.170 111.257 119.335 109.220 C 117.776 108.100, 115.265 105.883, 113.756 104.293 L 111.013 101.404 115.256 97.346 C 144.476 69.405, 187.355 48.245, 228.500 41.464 C 242.128 39.218, 265.590 38.518, 279.500 39.943 C 308.777 42.943, 343.107 55.999, 367.156 73.280 C 377.241 80.527, 394.376 95.315, 397.068 99.096 L 398.931 101.712 393.315 106.262 L 387.700 110.812 380.600 104.655 C 354.791 82.274, 323.924 65.793, 295.304 59.113 C 283.921 56.456, 267.265 54.043, 260.139 54.018 L 254.777 54 255.347 57.250 C 256.018 61.081, 257.368 96.221, 259.523 166 C 261.464 228.821, 261.462 228.798, 264.534 230.197 C 267.150 231.389, 265.425 232.785, 292.594 207.479 C 299.692 200.868, 311.717 190.141, 319.315 183.642 C 326.913 177.143, 333.368 171.205, 333.659 170.446 C 335.339 166.069, 328.436 159.053, 325.492 162.144 C 324.782 162.890, 323.070 166.650, 321.689 170.500 C 318.108 180.479, 317.875 181, 316.992 181 C 315.876 181, 306.958 144.234, 306.381 137.255 L 305.905 131.500 307.874 135.050 C 310.386 139.580, 318.129 146.738, 322.487 148.559 C 324.338 149.332, 328.366 150.261, 331.437 150.622 L 337.022 151.278 354.971 133.639 C 365.439 123.351, 373.706 116, 374.807 116 C 377.289 116, 387.702 126.964, 388.593 130.516 C 389.608 134.560, 385.533 140.137, 374.460 149.853 C 368.330 155.232, 364.160 157.394, 356.738 159.043 C 353.569 159.747, 350.551 160.836, 350.031 161.462 C 349.015 162.687, 347 184.472, 347 194.237 L 347 200.183 351.367 194.842 C 353.768 191.904, 358.096 187.516, 360.984 185.092 C 367.387 179.716, 368.593 176.982, 369.517 165.750 C 370.011 159.744, 370.633 157, 371.501 157 C 375.157 157, 386.187 206.652, 383.498 211.003 C 383.046 211.734, 381.643 209.564, 379.906 205.445 C 376.666 197.765, 373.596 194, 370.576 194.001 C 367.037 194.002, 356.835 199.454, 349.323 205.359 C 345.376 208.461, 341.888 211, 341.573 211 C 341.258 211, 340.993 207.512, 340.985 203.250 C 340.976 198.988, 340.621 194.952, 340.196 194.283 C 339.771 193.614, 337.360 191.970, 334.839 190.629 L 330.254 188.191 313.877 203.487 C 304.870 211.899, 292.868 223.471, 287.207 229.201 L 276.914 239.621 279.029 242.310 L 281.145 245 304.823 245.010 C 317.845 245.015, 344.250 245.552, 363.500 246.203 C 415.133 247.949, 413.286 247.990, 413.979 245.074 C 414.815 241.555, 416.615 241.457, 417.804 244.866 C 418.965 248.199, 421.212 248.877, 439.336 251.365 C 447.607 252.500, 449.255 252.499, 449.692 251.360 C 450.477 249.315, 448.198 231.053, 445.432 217.219 C 438.783 183.972, 423.249 150.892, 405.476 132.132 L 399.207 125.515 395.218 127.757 L 391.229 129.999 389.485 127.250 C 388.526 125.737, 386.647 123.322, 385.311 121.883 L 382.880 119.266 388.190 115.044 C 396.324 108.578, 423.118 83.784, 422.567 83.234 C 422.299 82.966, 419.907 84.566, 417.252 86.789 L 412.424 90.831 407.710 85.485 C 405.118 82.544, 399.285 77.147, 394.748 73.492 C 363.083 47.977, 322.757 30.206, 283.586 24.504 C 270.342 22.576, 243.588 21.801, 232.070 23.011 M 67.735 63.505 C 69.937 67.902, 72.755 74.304, 73.997 77.732 L 76.255 83.963 79.303 81.399 C 81.171 79.826, 83.189 78.994, 84.517 79.248 C 86.264 79.582, 85.886 78.874, 82.555 75.581 C 80.285 73.336, 75.121 67.902, 71.079 63.505 L 63.731 55.509 67.735 63.505 M 435.841 67.522 C 427.509 75.725, 424.749 79, 426.168 79 C 427.260 79, 429.487 80.333, 431.116 81.962 C 434.072 84.918, 434.080 84.919, 434.920 82.712 C 438.986 72.029, 441.989 65.849, 446.804 58.250 C 447.588 57.013, 448.066 56.010, 447.865 56.022 C 447.664 56.034, 442.254 61.209, 435.841 67.522 M 192.803 79.401 C 178.682 83.197, 170.719 97.119, 175.503 109.647 C 181.768 126.053, 200.959 131.830, 213.250 121.011 C 217.393 117.365, 221.979 109.645, 220.739 108.406 C 220.423 108.090, 218.336 107.587, 216.101 107.287 C 212.735 106.835, 211.922 107.065, 211.372 108.621 C 210.161 112.044, 205.650 116.017, 201.798 117.054 C 192.441 119.574, 183 112.120, 183 102.214 C 183 94.399, 189.970 87.615, 198 87.615 C 203.898 87.615, 207.507 89.842, 210.500 95.328 C 212.318 98.660, 212.888 98.995, 216.750 98.997 C 221.680 99, 222.044 97.945, 219.088 92.210 C 213.835 82.020, 202.895 76.689, 192.803 79.401 M 304.591 79.573 C 298.463 81.819, 293.991 85.823, 291.402 91.383 C 288.092 98.493, 288.230 99, 293.481 99 C 297.421 99, 298.037 98.700, 298.587 96.511 C 299.444 93.094, 305.237 88.234, 309.376 87.457 C 311.761 87.010, 314.168 87.423, 317.334 88.824 C 325.379 92.382, 328.339 102.362, 323.734 110.396 C 321.224 114.774, 316.034 118.002, 311.516 117.996 C 307.432 117.991, 302.360 114.725, 299.862 110.491 C 297.998 107.331, 297.379 107, 293.334 107 C 289.173 107, 288.910 107.155, 289.519 109.250 C 290.860 113.865, 295.681 120.532, 299.739 123.384 C 310.474 130.929, 326.478 125.986, 332.567 113.244 C 334.839 108.490, 335.522 100.652, 334.118 95.439 C 331.815 86.886, 320.410 77.934, 312 78.080 C 310.075 78.114, 306.741 78.785, 304.591 79.573 M 76.481 102.750 C 46.412 133.612, 22.892 186.783, 18.044 234.856 C 15.298 262.088, 17.835 295.523, 24.656 322 C 33.574 356.620, 47.237 382.693, 71.907 412.170 C 76.358 417.489, 80 422.079, 80 422.370 C 80 422.662, 76.237 426.044, 71.638 429.885 C 64.544 435.810, 52 450.285, 52 452.546 C 52 453.353, 59.746 447.293, 65.372 442.085 C 67.502 440.113, 71.725 435.125, 74.757 431 C 77.789 426.875, 83.980 419.675, 88.514 415 C 96.298 406.975, 104.019 396.750, 103.984 394.513 C 103.976 393.956, 100.566 389.675, 96.406 385 C 72.262 357.860, 56.368 321.204, 50.881 280 C 48.821 264.535, 49.329 235.828, 51.930 220.690 C 58.449 182.750, 73.296 150.102, 94.376 127.351 C 98.019 123.419, 101 119.791, 101 119.288 C 101 117.820, 95.534 113, 93.869 113 C 91.262 113, 77.519 128.085, 71.074 138.020 C 60.041 155.028, 49.824 178.044, 43.368 200.439 C 33.423 234.935, 32.397 272.448, 40.488 305.709 C 48.027 336.698, 63.909 368.545, 83.521 392 C 86.970 396.125, 90.964 400.591, 92.396 401.924 C 95.716 405.016, 95.668 405.986, 92.017 409.483 C 89.058 412.319, 89.018 412.326, 86.897 410.421 C 83.337 407.222, 67.765 386.055, 62.310 377 C 44.697 347.763, 34.235 318.009, 29.962 285 C 28.232 271.637, 28.466 241.898, 30.405 228.594 C 36.617 185.977, 57.274 141.229, 83.849 112.820 C 87.232 109.204, 90 105.603, 90 104.819 C 90 103.420, 84.043 97, 82.744 97 C 82.381 97, 79.562 99.588, 76.481 102.750 M 419.637 102.957 C 417.087 105.684, 415 108.423, 415 109.045 C 415 109.667, 417.840 113.726, 421.312 118.065 C 438.626 139.705, 455.924 177.841, 461.947 207.650 C 463.828 216.963, 466.036 242.716, 465.658 250.946 L 465.500 254.391 473 256.690 C 477.125 257.954, 481.248 258.991, 482.162 258.994 C 484.624 259.003, 485.335 252.771, 484.545 238.107 C 481.596 183.410, 463.906 137.379, 433.410 105.052 C 429.751 101.173, 426.199 98, 425.516 98 C 424.833 98, 422.187 100.231, 419.637 102.957 M 489.788 243.500 C 489.349 268.075, 488.978 273.090, 486.754 284.500 C 479.133 323.610, 462.281 364.447, 442.188 392.500 C 435.287 402.135, 425.672 413, 424.047 413 C 422.068 413, 415 405.985, 415 404.022 C 415 403.256, 416.715 400.575, 418.812 398.064 C 420.908 395.554, 423.990 391.475, 425.661 389 C 438.059 370.630, 455.577 331.657, 451.250 332.072 C 450.837 332.111, 447.494 338.299, 443.820 345.822 C 440.146 353.345, 434.322 363.763, 430.878 368.974 C 424.764 378.223, 409.791 395, 407.650 395 C 407.059 395, 404.546 393.087, 402.066 390.750 C 396.791 385.778, 397.753 387.118, 408.816 400.155 C 413.322 405.465, 419.691 412.134, 422.970 414.974 C 426.249 417.814, 430.601 422.470, 432.643 425.319 C 441.629 437.863, 443.868 440.452, 450 445.389 C 459.354 452.921, 459.757 452.976, 454.885 446.060 C 450.807 440.271, 445.589 434.953, 434.988 425.781 L 430.690 422.062 434.369 417.781 C 450.128 399.445, 461.017 383.497, 470.560 364.776 C 482.778 340.808, 491.405 314.876, 494.469 292.909 C 497.305 272.574, 495.885 236.298, 491.634 220.500 C 490.395 215.895, 490.249 217.712, 489.788 243.500 M 118.541 257.033 C 99.697 257.704, 98.503 257.862, 97.169 259.872 C 95.403 262.532, 94.382 262.570, 93.710 260 C 93.371 258.702, 92.365 258.013, 90.844 258.036 C 86.496 258.103, 63.044 261.623, 62.356 262.311 C 61.259 263.407, 63.863 284.507, 66.622 296.883 C 71.422 318.414, 79.273 337.318, 90.759 355 C 96.824 364.336, 105.760 375.558, 111.464 381 C 113.481 382.925, 116.063 386.001, 117.200 387.835 C 119.836 392.085, 131.729 402.247, 142.305 409.284 C 169.410 427.320, 196.489 437.645, 225.750 441.099 C 236.083 442.319, 236.812 442.721, 235.393 446.418 C 234.874 447.771, 232.453 447.997, 218.643 447.980 C 181.867 447.936, 152.085 440.013, 112.652 419.784 L 101.857 414.246 98.276 419.640 C 93.864 426.285, 94.331 427.853, 102.706 434.501 C 116.298 445.289, 136.221 456.122, 152.477 461.561 C 169.535 467.269, 184.153 469.319, 208.500 469.416 L 229.500 469.500 236.755 450.252 L 244.010 431.003 244.504 397.252 C 245.033 361.175, 246.559 309.318, 247.607 291.839 L 248.246 281.178 245.173 279.589 C 243.482 278.715, 241.841 278, 241.524 278 C 240.797 278, 230.201 287.692, 218.393 299.157 C 213.384 304.021, 208.860 308, 208.339 308 C 207.081 308, 201 301.686, 201 300.380 C 201 299.386, 209.368 291.076, 225.206 276.342 L 232.901 269.184 230.353 262.592 L 227.806 256 183.153 256.161 C 158.594 256.250, 129.519 256.642, 118.541 257.033 M 282.778 256.605 C 282.493 257.097, 281.662 259.880, 280.931 262.790 L 279.602 268.079 295.816 284.316 L 312.031 300.553 307.761 304.744 L 303.492 308.934 286.996 293.107 L 270.500 277.281 266.128 279.390 L 261.755 281.500 262.378 291 C 262.721 296.225, 263.683 314, 264.517 330.500 C 268.402 407.435, 271.185 441.859, 274.782 457.500 L 277.543 469.500 292.521 469.267 C 325.431 468.754, 354.948 461.666, 383.500 447.421 C 396.959 440.706, 411.214 431.199, 413.808 427.210 C 415.229 425.025, 415.062 424.692, 410.175 419.982 C 404.282 414.302, 405.685 414.129, 391.242 422.310 C 372.086 433.162, 351.538 441.129, 332.446 445.107 C 324.724 446.716, 317.331 447.296, 299.388 447.703 L 276.277 448.228 275.727 445.364 C 275.424 443.789, 275.314 442.361, 275.481 442.191 C 275.648 442.021, 280.804 441.224, 286.938 440.421 C 309.420 437.477, 326.662 432.244, 347.500 422.038 C 364.885 413.524, 380.639 403.129, 388.500 394.985 C 391.800 391.566, 396.861 386.328, 399.747 383.345 C 429.366 352.723, 447.108 313.741, 450.522 271.781 C 451.216 263.248, 451.181 263.042, 448.866 262.105 C 445.800 260.863, 420.103 257.818, 418.911 258.555 C 418.410 258.865, 418 259.766, 418 260.559 C 418 262.689, 414.894 262.310, 414.319 260.111 C 413.918 258.578, 412.567 258.111, 407.162 257.637 C 395.282 256.595, 283.323 255.666, 282.778 256.605 M 463.484 264.372 C 463.287 264.993, 462.405 271.387, 461.525 278.582 C 460.204 289.385, 457.262 304.779, 454.486 315.414 C 454.187 316.561, 455.135 315.250, 456.593 312.500 C 458.051 309.750, 459.420 307.307, 459.634 307.071 C 459.849 306.835, 461.610 307.397, 463.546 308.321 C 469.934 311.367, 471.581 310.727, 474.035 304.250 C 476.939 296.585, 481.729 277.601, 482.157 272.062 L 482.500 267.624 478.081 266.327 C 470.062 263.972, 463.875 263.144, 463.484 264.372 M 391.665 287.242 C 389.070 295.084, 384.942 305.488, 382.492 310.361 C 377.956 319.386, 368.712 333.043, 364.392 337.101 L 362.002 339.347 347.751 325.352 C 339.913 317.655, 329.999 308.037, 325.719 303.980 L 317.939 296.603 308.969 305.530 C 304.036 310.441, 299.987 314.918, 299.971 315.479 C 299.955 316.041, 307.493 323.868, 316.721 332.873 L 333.500 349.246 329.238 348.609 C 326.893 348.259, 321.493 347.699, 317.238 347.365 L 309.500 346.758 311.718 349.070 C 312.938 350.341, 317.428 353.208, 321.695 355.441 L 329.454 359.500 330.711 365.820 C 333.088 377.771, 337.326 384.472, 346.348 390.549 C 349.121 392.416, 351.535 393.799, 351.712 393.621 C 351.889 393.444, 350.452 390.671, 348.518 387.460 C 344.832 381.339, 341.702 373.694, 340.682 368.321 L 340.078 365.142 346.789 368.229 C 355.727 372.341, 355.720 372.334, 357.034 378.662 C 358.383 385.164, 362.145 396.501, 364.312 400.600 C 366.082 403.947, 366.591 403.115, 367.304 395.701 C 367.558 393.061, 368.024 390.642, 368.341 390.326 C 368.657 390.010, 372.544 390.482, 376.978 391.375 C 387.164 393.428, 387.584 393.416, 390 391 C 393.652 387.348, 392.632 385.403, 386.409 384.153 C 379.487 382.763, 369 378.152, 369 376.499 C 369 375.824, 371.064 374.483, 373.588 373.520 C 380.645 370.824, 390.323 361.160, 394.505 352.632 C 401.674 338.010, 404.497 316.990, 402.079 296.234 C 400.864 285.815, 398.517 275.121, 397.140 273.742 C 396.724 273.325, 394.260 279.400, 391.665 287.242 M 115.156 276.218 C 111.872 284.464, 110.501 295.763, 110.570 314 C 110.648 334.674, 112.069 342.301, 118.137 354.628 C 121.940 362.352, 130.765 370.981, 137.489 373.549 C 145.297 376.531, 141.721 380.386, 127.892 383.893 C 119.794 385.947, 118.498 387.498, 121.977 390.977 C 124.266 393.266, 126.697 393.168, 136.440 390.399 C 142.228 388.754, 142.953 389.318, 143 395.500 C 143.039 400.583, 144.189 402.682, 145.844 400.688 C 147.354 398.869, 150.222 390.426, 152.467 381.193 C 154.394 373.268, 155.033 372.563, 164.093 368.365 C 166.766 367.127, 169.114 366.426, 169.311 366.807 C 170.174 368.479, 167.604 376.378, 163.601 384.354 C 161.214 389.109, 159.553 393, 159.908 393 C 161.032 393, 165.361 389.832, 169.336 386.101 C 173.865 381.850, 177.717 374.800, 180.018 366.549 L 181.677 360.599 192.065 354.870 C 197.778 351.719, 202.613 348.660, 202.810 348.071 C 203.373 346.380, 191.644 347.173, 181.250 349.528 C 175.828 350.757, 179.326 346.752, 201.292 326.584 C 207.228 321.134, 211.953 316.137, 211.792 315.479 C 211.631 314.821, 207.598 310.149, 202.829 305.096 L 194.158 295.909 171.945 317.965 C 152.993 336.784, 149.506 339.837, 148.197 338.761 C 144.946 336.089, 135.458 322.254, 130.926 313.580 C 128.318 308.586, 124.753 300, 123.004 294.500 C 115.763 271.725, 116.376 273.154, 115.156 276.218 M 145.530 470.250 C 143.974 472.462, 144.053 472.547, 150.205 475.307 C 183.655 490.312, 231.730 498.487, 271.643 495.958 C 304.469 493.877, 343.052 485.449, 365.873 475.373 C 370.436 473.359, 371.058 472.775, 370.001 471.501 C 368.289 469.438, 367.006 469.567, 354.998 473.010 C 328.373 480.644, 296.188 486.512, 273.062 487.949 C 237.602 490.153, 202.945 485.196, 161.865 472.045 C 154.916 469.820, 148.754 468, 148.172 468 C 147.590 468, 146.401 469.012, 145.530 470.250" stroke="none" fill="black" fill-rule="evenodd"/>
</svg>